<?xml version="1.0" encoding="UTF-8" standalone="no"?>
<!-- Created with Inkscape (http://www.inkscape.org/) -->

<svg
   width="200"
   height="200"
   viewBox="0 0 52.916665 52.916666"
   version="1.1"
   id="svg1"
   inkscape:version="1.3.2 (091e20ef0f, 2023-11-25)"
   sodipodi:docname="humidity.svg"
   xmlns:inkscape="http://www.inkscape.org/namespaces/inkscape"
   xmlns:sodipodi="http://sodipodi.sourceforge.net/DTD/sodipodi-0.dtd"
   xmlns="http://www.w3.org/2000/svg"
   xmlns:svg="http://www.w3.org/2000/svg">
  <sodipodi:namedview
     id="namedview1"
     pagecolor="#ffffff"
     bordercolor="#000000"
     borderopacity="0.25"
     inkscape:showpageshadow="2"
     inkscape:pageopacity="0.0"
     inkscape:pagecheckerboard="0"
     inkscape:deskcolor="#d1d1d1"
     inkscape:document-units="mm"
     inkscape:zoom="1.7175645"
     inkscape:cx="137.98608"
     inkscape:cy="110.03953"
     inkscape:window-width="1366"
     inkscape:window-height="685"
     inkscape:window-x="0"
     inkscape:window-y="0"
     inkscape:window-maximized="1"
     inkscape:current-layer="layer1" />
  <defs
     id="defs1" />
  <g
     inkscape:label="Camada 1"
     inkscape:groupmode="layer"
     id="layer1">
    <rect
       style="fill:#000000;stroke:#222222;stroke-width:0;stroke-linejoin:round"
       id="rect3"
       width="76.281654"
       height="68.916534"
       x="-9.9989634"
       y="-5.5657601" />
    <a
       id="a4">
      <path
         id="path1"
         style="fill:#ffffff;fill-opacity:1;stroke:#222222;stroke-width:0;stroke-linejoin:round"
         d="M 44.174885,35.200116 A 17.716551,17.716551 0 0 1 26.458334,52.916667 17.716551,17.716551 0 0 1 8.7417828,35.200116 17.716551,17.716551 0 0 1 26.458334,17.483566 17.716551,17.716551 0 0 1 44.174885,35.200116 Z" />
      <path
         id="path2"
         style="fill:#ffffff;fill-opacity:1;stroke:#222222;stroke-width:0;stroke-linejoin:round"
         inkscape:transform-center-x="-3.3569623"
         inkscape:transform-center-y="-7.0623759"
         d="M 43.091587,28.892507 26.45833,28.809646 9.8250724,28.726789 18.21346,14.363395 26.601847,4.6228384e-7 34.846717,14.446256 Z" />
    </a>
    <path
       id="rect4"
       style="stroke:#222222;stroke-width:0;stroke-linejoin:round"
       transform="rotate(40.992147)"
       d="m 43.06045,-4.069994 c 1.238656,0 2.235842,0.9971856 2.235842,2.235842 v 22.09538 c 0,1.238657 -0.997186,2.235842 -2.235842,2.235842 -1.238657,0 -2.235842,-0.997185 -2.235842,-2.235842 v -22.09538 c 0,-1.2386564 0.997185,-2.235842 2.235842,-2.235842 z" />
    <path
       id="path4"
       style="stroke:#222222;stroke-width:0;stroke-linejoin:round"
       d="m 23.560143,30.655167 a 4.5449491,4.5449491 0 0 1 -4.544949,4.544949 4.5449491,4.5449491 0 0 1 -4.544949,-4.544949 4.5449491,4.5449491 0 0 1 4.544949,-4.544949 4.5449491,4.5449491 0 0 1 4.544949,4.544949 z" />
    <path
       id="path4-2"
       style="stroke:#222222;stroke-width:0;stroke-linejoin:round"
       d="m 37.231762,41.231834 a 4.5449491,4.5449491 0 0 1 -4.544949,4.544949 4.5449491,4.5449491 0 0 1 -4.544949,-4.544949 4.5449491,4.5449491 0 0 1 4.544949,-4.544949 4.5449491,4.5449491 0 0 1 4.544949,4.544949 z" />
  </g>
</svg>
